# xmcd CD database file
#
# Track frame offsets:
#	150
#	16802
#	30410
#	36767
#	52660
#	76732
#	94707
#	107592
#	132867
#	168222
#	182005
#	204070
#	233092
#	250897
#	262982
#	278037
#	290247
#	303137
#	315335
#	328457
#
# Disc length: 4552 seconds
#
# Revision: 0
# Processed by: cddbd v1.5PL3 Copyright (c) Steve Scherf et al.
# Submitted via: CDex 1.50
#
DISCID=f611c614
DTITLE=Karl Gerhard - Ett bedårande barn av sin tid
DYEAR=2003
DGENRE=Jazz
TTITLE0=Jazzgossen
TTITLE1=Det rara gamla paret (duett med Fatima)
TTITLE2=Gungorna och karusellen
TTITLE3=En doft ifrån den fina världen
TTITLE4=Den ökanda hästen från Troja
TTITLE5=Johansson (Roslagsvår)
TTITLE6=På andra sidan bron
TTITLE7=Alla muntra fruarna i Mälassta' n
TTITLE8=En katt bland hermelinerna
TTITLE9=Terracota IOm jag inte minns fel)
TTITLE10=Visan om Pauline Brunius
TTITLE11=13 år
TTITLE12=Tango för tre
TTITLE13=Nu ska vi vara snälla
TTITLE14=Spott' ut!
TTITLE15=Hej på dej, du gamla primadonna!
TTITLE16=Alla de gamla fina märkena
TTITLE17=Under takåsarna i Paris
TTITLE18=Jag är ett bedårande barn av min tid
TTITLE19=Det rara gamla paret (duett med Evert Taube)
EXTD=YEAR: 2003
EXTT0=
EXTT1=
EXTT2=
EXTT3=
EXTT4=
EXTT5=
EXTT6=
EXTT7=
EXTT8=
EXTT9=
EXTT10=
EXTT11=
EXTT12=
EXTT13=
EXTT14=
EXTT15=
EXTT16=
EXTT17=
EXTT18=
EXTT19=
PLAYORDER=
